<?xml version="1.0" encoding="UTF-8" standalone="no"?>
<!-- Created with Inkscape (http://www.inkscape.org/) -->

<svg
   width="169.21432mm"
   height="159.20903mm"
   viewBox="0 0 169.21433 159.20903"
   version="1.1"
   id="svg5"
   inkscape:version="1.1.1 (3bf5ae0d25, 2021-09-20)"
   sodipodi:docname="Bird_GoldRings_Atom_MGAPS_Only_OffCenter.svg"
   xmlns:inkscape="http://www.inkscape.org/namespaces/inkscape"
   xmlns:sodipodi="http://sodipodi.sourceforge.net/DTD/sodipodi-0.dtd"
   xmlns:xlink="http://www.w3.org/1999/xlink"
   xmlns="http://www.w3.org/2000/svg"
   xmlns:svg="http://www.w3.org/2000/svg">
  <sodipodi:namedview
     id="namedview7"
     pagecolor="#ffffff"
     bordercolor="#666666"
     borderopacity="1.0"
     inkscape:pageshadow="2"
     inkscape:pageopacity="0.0"
     inkscape:pagecheckerboard="true"
     inkscape:document-units="mm"
     showgrid="false"
     inkscape:snap-center="true"
     inkscape:zoom="1"
     inkscape:cx="390"
     inkscape:cy="348.5"
     inkscape:window-width="1829"
     inkscape:window-height="1051"
     inkscape:window-x="-9"
     inkscape:window-y="-9"
     inkscape:window-maximized="1"
     inkscape:current-layer="layer5" />
  <defs
     id="defs2">
    <inkscape:path-effect
       effect="bend_path"
       id="path-effect261391"
       is_visible="true"
       lpeversion="1"
       bendpath="m 168.86349,96.889025 c 12.92557,11.996265 13.96746,28.759845 16.06298,43.217485"
       prop_scale="1"
       scale_y_rel="false"
       vertical="false"
       hide_knot="false"
       bendpath-nodetypes="cc" />
    <inkscape:path-effect
       effect="bend_path"
       id="path-effect249906"
       is_visible="true"
       lpeversion="1"
       bendpath="M 53.454939,75.486509 C 75.203494,60.947276 108.87489,57.691894 140.81414,73.80271"
       prop_scale="1"
       scale_y_rel="false"
       vertical="false"
       hide_knot="false"
       bendpath-nodetypes="cc" />
    <inkscape:path-effect
       effect="powermask"
       id="path-effect129201"
       is_visible="true"
       lpeversion="1"
       uri="#mask-powermask-path-effect129201"
       invert="false"
       hide_mask="false"
       background="true"
       background_color="#ffffffff" />
    <linearGradient
       inkscape:collect="always"
       id="linearGradient127733">
      <stop
         style="stop-color:#f7edd8;stop-opacity:1"
         offset="0"
         id="stop127729" />
      <stop
         style="stop-color:#ffffff;stop-opacity:0;"
         offset="1"
         id="stop127731" />
    </linearGradient>
    <inkscape:path-effect
       effect="bspline"
       id="path-effect13683"
       is_visible="true"
       lpeversion="1"
       weight="33.333333"
       steps="2"
       helper_size="0"
       apply_no_weight="true"
       apply_with_weight="true"
       only_selected="false" />
    <filter
       id="mask-powermask-path-effect93288_inverse"
       inkscape:label="filtermask-powermask-path-effect93288"
       style="color-interpolation-filters:sRGB"
       height="100"
       width="100"
       x="-50"
       y="-50">
      <feColorMatrix
         id="mask-powermask-path-effect93288_primitive1"
         values="1"
         type="saturate"
         result="fbSourceGraphic" />
      <feColorMatrix
         id="mask-powermask-path-effect93288_primitive2"
         values="-1 0 0 0 1 0 -1 0 0 1 0 0 -1 0 1 0 0 0 1 0 "
         in="fbSourceGraphic" />
    </filter>
    <filter
       id="mask-powermask-path-effect93298_inverse"
       inkscape:label="filtermask-powermask-path-effect93298"
       style="color-interpolation-filters:sRGB"
       height="100"
       width="100"
       x="-50"
       y="-50">
      <feColorMatrix
         id="mask-powermask-path-effect93298_primitive1"
         values="1"
         type="saturate"
         result="fbSourceGraphic" />
      <feColorMatrix
         id="mask-powermask-path-effect93298_primitive2"
         values="-1 0 0 0 1 0 -1 0 0 1 0 0 -1 0 1 0 0 0 1 0 "
         in="fbSourceGraphic" />
    </filter>
    <filter
       id="mask-powermask-path-effect93326_inverse"
       inkscape:label="filtermask-powermask-path-effect93326"
       style="color-interpolation-filters:sRGB"
       height="100"
       width="100"
       x="-50"
       y="-50">
      <feColorMatrix
         id="mask-powermask-path-effect93326_primitive1"
         values="1"
         type="saturate"
         result="fbSourceGraphic" />
      <feColorMatrix
         id="mask-powermask-path-effect93326_primitive2"
         values="-1 0 0 0 1 0 -1 0 0 1 0 0 -1 0 1 0 0 0 1 0 "
         in="fbSourceGraphic" />
    </filter>
    <clipPath
       clipPathUnits="userSpaceOnUse"
       id="clipPath93636">
      <rect
         style="fill:none;fill-opacity:1;stroke:#001830;stroke-width:2.37387;stroke-miterlimit:4;stroke-dasharray:none;stroke-opacity:1"
         id="rect93638"
         width="217.86389"
         height="169.04845"
         x="50.254509"
         y="6.2647443"
         transform="rotate(19.883601)" />
    </clipPath>
    <linearGradient
       inkscape:collect="always"
       xlink:href="#linearGradient127733"
       id="linearGradient101092"
       x1="116.48144"
       y1="102.23623"
       x2="106.19814"
       y2="111.3961"
       gradientUnits="userSpaceOnUse" />
    <mask
       maskUnits="userSpaceOnUse"
       id="mask-powermask-path-effect129201">
      <path
         style="fill:#000000;stroke:#000000;stroke-width:0.264583px;stroke-linecap:butt;stroke-linejoin:miter;stroke-opacity:1"
         d="m 18.754305,192.65786 50.807119,18.75431 11.822147,10.10081 -12.909119,12.90912 c 0,0 -38.727353,6.73519 -39.662798,6.17393 -0.935442,-0.56127 -39.101531,-12.16077 -39.475708,-13.47039 -0.374177,-1.30962 -8.606079,-25.25697 -8.41899,-26.3795 0.187089,-1.12253 17.399246,-17.77342 17.399246,-17.77342 l 17.025069,-3.74178 3.413034,13.42692"
         id="path129199" />
    </mask>
    <inkscape:path-effect
       effect="bend_path"
       id="path-effect249906-7"
       is_visible="true"
       lpeversion="1"
       bendpath="M 53.454939,75.486509 C 75.203494,60.947276 108.87489,57.691894 140.81414,73.80271"
       prop_scale="1"
       scale_y_rel="false"
       vertical="false"
       hide_knot="false"
       bendpath-nodetypes="cc" />
  </defs>
  <g
     inkscape:groupmode="layer"
     id="layer2"
     inkscape:label="Big Blue Circle"
     style="display:inline"
     transform="translate(-16.69664,-59.633202)" />
  <g
     inkscape:groupmode="layer"
     id="layer3"
     inkscape:label="Yellow Rings"
     style="display:inline"
     transform="translate(-16.69664,-59.633202)" />
  <g
     inkscape:groupmode="layer"
     id="layer4"
     inkscape:label="Bird"
     style="display:inline"
     transform="translate(-16.69664,-59.633202)" />
  <g
     inkscape:groupmode="layer"
     id="layer6"
     inkscape:label="Text"
     style="display:inline"
     transform="translate(-16.69664,-59.633202)" />
  <g
     inkscape:groupmode="layer"
     id="layer5"
     inkscape:label="Atom Ring"
     style="display:inline"
     transform="translate(-16.69664,-59.633202)">
    <g
       id="g951">
      <circle
         style="display:inline;fill:#041a33;fill-opacity:1;stroke:#041a33;stroke-width:0.266874;stroke-opacity:1"
         id="path44"
         cx="100.23259"
         cy="148.9938"
         r="69.714989" />
      <ellipse
         style="display:inline;fill:none;fill-opacity:1;stroke:#fdac22;stroke-width:3.62381;stroke-miterlimit:4;stroke-dasharray:none;stroke-opacity:1"
         id="path20284"
         cx="119.16724"
         cy="96.640465"
         rx="75.168991"
         ry="31.252478"
         transform="rotate(11.420219)" />
      <ellipse
         style="display:inline;fill:none;fill-opacity:1;stroke:#fdac22;stroke-width:3.7;stroke-miterlimit:4;stroke-dasharray:none;stroke-opacity:1"
         id="path20284-0"
         cx="94.736565"
         cy="148.49712"
         rx="68.275246"
         ry="28.386318"
         transform="rotate(1.2609508)" />
      <ellipse
         style="display:inline;fill:none;fill-opacity:1;stroke:#fdac22;stroke-width:3.7;stroke-miterlimit:4;stroke-dasharray:none;stroke-opacity:1"
         id="path20284-0-2"
         cx="68.794815"
         cy="212.28355"
         rx="37.461758"
         ry="15.575211"
         transform="rotate(-17.736845)" />
      <path
         style="display:inline;fill:#fe0519;fill-opacity:1;stroke:#041a33;stroke-width:0.264583px;stroke-linecap:butt;stroke-linejoin:miter;stroke-opacity:1"
         d="m 71.607346,169.12973 -52.853041,23.52813 50.807118,18.75431 30.688867,-37.16762 -8.865676,10.91159 13.298506,-1.02296 17.04937,-7.16074 12.78703,-13.2985 6.30826,-18.75431 -2.04592,-14.66245 4.77382,-6.47877 15.34443,-5.45579 -4.47522,-6.43638 -5.41341,-2.08831 -7.16074,-3.06889 -4.43283,-3.75086 -6.81975,-3.750856 h -9.54765 l -11.93455,4.773826 -4.43284,6.13777 -5.455796,8.1837 -3.068886,6.81974 -7.501723,4.09185 -8.865672,6.81975 -2.386912,7.50172 -2.045922,9.88863 v 7.84271 l 1.363948,4.43284 z"
         id="path20570"
         sodipodi:nodetypes="ccccccccccccccccccccccccccccc" />
      <path
         style="display:inline;fill:none;fill-opacity:1;stroke:#041a33;stroke-width:2;stroke-linecap:butt;stroke-linejoin:miter;stroke-miterlimit:4;stroke-dasharray:none;stroke-opacity:1"
         d="m 53.266364,205.30586 39.07916,-35.30297"
         id="path25892-6"
         sodipodi:nodetypes="cc" />
      <path
         style="display:inline;fill:none;fill-opacity:1;stroke:#041a33;stroke-width:2;stroke-linecap:butt;stroke-linejoin:miter;stroke-miterlimit:4;stroke-dasharray:none;stroke-opacity:1"
         d="M 36.130214,198.90548 83.355242,168.51215"
         id="path25892-6-8"
         sodipodi:nodetypes="cc" />
      <path
         style="display:inline;fill:none;fill-opacity:1;stroke:#041a33;stroke-width:3.7;stroke-linecap:butt;stroke-linejoin:miter;stroke-miterlimit:4;stroke-dasharray:none;stroke-opacity:1"
         d="m 18.754305,192.65786 57.967852,-26.938"
         id="path25892"
         sodipodi:nodetypes="cc" />
      <path
         style="display:inline;fill:none;fill-opacity:1;stroke:#041a33;stroke-width:3.7;stroke-linecap:butt;stroke-linejoin:miter;stroke-miterlimit:4;stroke-dasharray:none;stroke-opacity:1"
         d="M 69.561423,211.41217 100.25029,174.24455"
         id="path25892-9"
         sodipodi:nodetypes="cc" />
      <path
         style="display:inline;fill:none;stroke:#041a33;stroke-width:3.7;stroke-linecap:butt;stroke-linejoin:miter;stroke-miterlimit:4;stroke-dasharray:none;stroke-opacity:1"
         d="m 91.384614,185.15614 c 23.095486,-2.15033 52.662986,-8.3362 47.397246,-54.89896 v 0"
         id="path39605"
         sodipodi:nodetypes="ccc" />
      <path
         style="display:inline;fill:#021832;fill-opacity:1;stroke:#041a33;stroke-width:3.7;stroke-linecap:butt;stroke-linejoin:miter;stroke-miterlimit:4;stroke-dasharray:none;stroke-opacity:1"
         d="m 138.84075,131.0412 c -0.10365,-3.27896 2.51643,-5.54076 4.71493,-7.26279"
         id="path43576"
         sodipodi:nodetypes="cc" />
      <path
         style="display:inline;fill:#021832;fill-opacity:1;stroke:#041a33;stroke-width:3.7;stroke-linecap:butt;stroke-linejoin:miter;stroke-miterlimit:4;stroke-dasharray:none;stroke-opacity:1"
         d="m 159.1624,118.50098 c -3.07549,-4.19528 -7.12147,-7.87728 -17.57395,-11.9503"
         id="path56191"
         sodipodi:nodetypes="cc" />
      <path
         style="display:inline;fill:none;stroke:#041a33;stroke-width:3.7;stroke-linecap:butt;stroke-linejoin:miter;stroke-miterlimit:4;stroke-dasharray:none;stroke-opacity:1"
         d="m 97.202544,124.17705 c -21.213839,7.7311 -21.646853,27.17466 -21.566934,43.24228"
         id="path80286"
         sodipodi:nodetypes="cc" />
      <g
         id="g93115"
         style="display:inline;stroke:#041a33;stroke-opacity:1">
        <path
           style="fill:none;stroke:#041a33;stroke-width:2;stroke-linecap:butt;stroke-linejoin:miter;stroke-miterlimit:4;stroke-dasharray:none;stroke-opacity:1"
           d="m 138.10535,131.99963 c -5.82007,50.79711 -32.89556,43.90816 -40.70617,47.19703"
           id="path87385"
           sodipodi:nodetypes="cc" />
        <path
           style="fill:none;stroke:#041a33;stroke-width:2;stroke-linecap:butt;stroke-linejoin:miter;stroke-miterlimit:4;stroke-dasharray:none;stroke-opacity:1"
           d="m 133.56682,131.99081 c -0.51375,27.86282 -23.57698,42.51222 -33.31653,42.25374"
           id="path87857"
           sodipodi:nodetypes="cc" />
        <path
           style="fill:none;stroke:#041a33;stroke-width:2;stroke-linecap:butt;stroke-linejoin:miter;stroke-miterlimit:4;stroke-dasharray:none;stroke-opacity:1"
           d="m 126.08077,138.68885 c -4.37814,19.7207 -14.98338,26.55497 -25.76776,28.68337"
           id="path88063"
           sodipodi:nodetypes="cc" />
      </g>
      <path
         style="display:inline;fill:none;fill-opacity:1;stroke:#041a33;stroke-width:3.7;stroke-linecap:butt;stroke-linejoin:miter;stroke-miterlimit:4;stroke-dasharray:none;stroke-opacity:1"
         d="M 142.64879,106.9525 C 132.2927,94.813961 108.0325,92.419089 99.227324,118.32262 l -3.068886,6.81974"
         id="path65088"
         sodipodi:nodetypes="ccc" />
      <path
         style="display:inline;fill:#f7edd8;fill-opacity:1;stroke:#f7edd8;stroke-width:0.842386;stroke-miterlimit:4;stroke-dasharray:none;stroke-opacity:1"
         d="m 143.27932,121.88828 c -1.12088,-3.21484 -1.58246,-5.38354 -1.58246,-7.43515 0,-1.1952 0.20105,-2.77995 0.45992,-3.62534 0.3201,-1.04533 0.58574,-1.67161 0.70902,-1.67161 0.15288,0 1.85431,0.7377 3.28869,1.42589 3.43374,1.64746 6.36064,3.58454 8.57995,5.67838 l 1.0577,0.99791 -0.7791,0.49938 c -1.96214,1.25768 -4.90546,2.72209 -7.64462,3.80348 -1.33546,0.52722 -3.51504,1.30216 -3.66244,1.30216 -0.0477,0 -0.23968,-0.43879 -0.42666,-0.9751 z"
         id="path94014" />
      <path
         style="display:inline;fill:#031730;fill-opacity:1;stroke:#041a33;stroke-width:3.7;stroke-linecap:butt;stroke-linejoin:miter;stroke-miterlimit:4;stroke-dasharray:none;stroke-opacity:1"
         d="m 143.17238,124.59908 c 5.58872,-2.61403 10.27509,-6.49374 15.53271,-7.14013"
         id="path50512"
         sodipodi:nodetypes="cc" />
      <path
         style="display:inline;fill:none;stroke:#041a33;stroke-width:2;stroke-linecap:butt;stroke-linejoin:miter;stroke-miterlimit:4;stroke-dasharray:none;stroke-opacity:1"
         d="m 142.64879,106.9525 c -3.59263,6.55037 -1.73579,11.68141 0.52359,17.64658"
         id="path61153"
         sodipodi:nodetypes="cc" />
      <g
         id="g228968"
         style="display:inline">
        <path
           style="fill:none;stroke:#f7edd8;stroke-width:2;stroke-linecap:butt;stroke-linejoin:miter;stroke-miterlimit:4;stroke-dasharray:none;stroke-opacity:1"
           d="m 140.36426,108.56839 c -5.7094,-6.29616 -14.68087,-9.869196 -23.88282,-6.33216"
           id="path94824"
           sodipodi:nodetypes="cc" />
        <g
           id="g228961">
          <path
             style="fill:#f7edd8;fill-opacity:1;stroke:#f7edd8;stroke-width:0.264583px;stroke-linecap:butt;stroke-linejoin:miter;stroke-opacity:1"
             d="m 139.7039,109.13272 0.69319,0.67556"
             id="path97428"
             sodipodi:nodetypes="cc" />
          <path
             style="fill:#f7edd8;fill-opacity:1;stroke:#f7edd8;stroke-width:0.264583px;stroke-linecap:butt;stroke-linejoin:miter;stroke-opacity:1"
             d="m 140.34955,109.76159 c -0.0689,-0.15094 0.63132,-1.91123 0.63132,-1.91123"
             id="path98636"
             sodipodi:nodetypes="cc" />
          <path
             style="fill:#f7edd8;fill-opacity:1;stroke:#f7edd8;stroke-width:0.0160897;stroke-miterlimit:4;stroke-dasharray:none;stroke-opacity:1"
             d="m 139.97335,109.32265 c -0.17779,-0.16211 -0.32328,-0.29664 -0.32328,-0.29896 0,-0.004 1.25711,-1.07381 1.25964,-1.07194 7.9e-4,3.7e-4 -0.0313,0.0823 -0.071,0.18169 -0.24009,0.60073 -0.41894,1.0874 -0.51516,1.40168 -0.0136,0.044 -0.025,0.0806 -0.0257,0.0812 -7.9e-4,7.5e-4 -0.14661,-0.13145 -0.32445,-0.29361 z"
             id="path99145" />
        </g>
      </g>
      <path
         style="display:inline;fill:none;fill-opacity:1;stroke:url(#linearGradient101092);stroke-width:2;stroke-linecap:butt;stroke-linejoin:miter;stroke-miterlimit:4;stroke-dasharray:none;stroke-opacity:1"
         d="m 116.56412,102.20316 c -6.92295,2.453 -11.38092,8.98991 -13.01047,12.92601"
         id="path99314"
         sodipodi:nodetypes="cc" />
      <circle
         style="display:inline;fill:#f7edd8;fill-opacity:1;stroke:#f7edd8;stroke-width:3.39298;stroke-miterlimit:4;stroke-dasharray:none;stroke-opacity:1"
         id="path129509"
         cx="125.67681"
         cy="115.38692"
         r="2.0630651" />
      <path
         style="display:inline;fill:none;fill-opacity:1;stroke:#041a33;stroke-width:3.7;stroke-linecap:butt;stroke-linejoin:miter;stroke-miterlimit:4;stroke-dasharray:none;stroke-opacity:1"
         d="M 71.584319,210.8509 17.281385,192.75943"
         id="path181776"
         sodipodi:nodetypes="cc" />
      <g
         aria-label="MGAPS"
         id="text238776"
         style="font-size:25.4px;line-height:1.25;font-family:Garamond;-inkscape-font-specification:Garamond;white-space:pre;inline-size:88.6688;display:inline;stroke-width:0.264583"
         inkscape:path-effect="#path-effect249906"
         transform="rotate(38.913116,93.380721,152.59761)">
        <path
           d="m 57.854343,82.23574 c -0.147029,-0.239989 -0.293909,-0.480065 -0.440641,-0.720226 0.739788,-0.661222 1.157614,-1.168666 1.233556,-1.560267 0.0428,-0.260617 -0.113992,-0.771815 -0.467688,-1.533218 -0.725183,-1.279754 -1.447042,-2.561352 -2.165578,-3.844781 -0.724015,-1.309119 -1.444127,-2.620378 -2.160339,-3.933758 -0.125681,-0.242788 -0.202997,-0.388275 -0.233152,-0.437946 -0.604552,-0.995833 -1.021932,-1.527972 -1.258153,-1.59792 -0.223651,-0.07358 -0.852442,0.09334 -1.863254,0.537079 -0.258178,0.106619 -0.457689,0.188146 -0.608334,0.246822 -0.130241,-0.161824 -0.234089,-0.301147 -0.311592,-0.418459 l -0.211883,-0.320718 c 0.292326,-0.220966 0.647881,-0.465509 1.065527,-0.729014 1.246885,-0.737856 2.510147,-1.438028 3.787977,-2.101102 0.09029,-0.0407 0.213707,-0.09976 0.372968,-0.177762 0.201872,-0.101414 0.404085,-0.201908 0.606632,-0.301484 0.22509,0.06628 0.474877,0.180746 0.748443,0.343886 0.594903,0.360579 1.43342,0.929368 2.46469,1.704953 0.09633,0.07603 0.192468,0.152207 0.288425,0.228539 1.279309,0.920821 2.526202,1.869829 3.740779,2.845258 0.08223,0.07135 0.206269,0.171661 0.3739,0.303553 0.244106,0.214079 0.485675,0.416169 0.724697,0.606222 0.23558,0.182544 0.485947,0.390641 0.750362,0.624512 0.272337,0.230486 0.519605,0.431682 0.743344,0.603567 0.02785,-0.228808 0.04456,-0.47497 0.05026,-0.73852 0.0084,-0.831757 0.04495,-1.606142 0.106279,-2.320974 0.09931,-1.259049 0.181332,-3.149761 0.345477,-5.689506 0.02464,-0.402256 0.08667,-1.03323 0.195789,-1.861989 0.115937,-0.845244 0.193581,-1.294855 0.216078,-1.346987 0.05968,-0.09195 0.213268,-0.183048 0.46067,-0.271277 0.09233,-0.03292 0.231664,-0.08685 0.422424,-0.162506 0.467572,-0.190089 1.039747,-0.408017 1.708036,-0.643576 0.98047,-0.328952 1.730906,-0.580905 2.318927,-0.798446 0.576538,-0.2213 0.920969,-0.343637 0.989045,-0.36283 0.09363,-0.0264 0.208347,-0.04998 0.343932,-0.07043 0.04013,0.109061 0.06897,0.195571 0.08654,0.259371 0.0236,0.122259 0.04725,0.244509 0.07093,0.366748 0.0198,0.07184 0.04481,0.180731 0.07516,0.326932 -0.839831,0.353383 -1.496408,0.730706 -1.968246,1.116762 -0.327124,0.273013 -0.451327,0.52948 -0.37765,0.766053 l 0.05532,0.177633 c 0.453048,1.183829 0.902651,2.36894 1.348811,3.555313 0.118735,0.29989 0.71555,1.973922 1.717826,4.883574 0.22806,0.659766 0.53534,1.480791 0.92378,2.481049 0.05397,0.121902 0.09171,0.218593 0.113246,0.289799 0.06524,0.187618 0.141172,0.29871 0.227491,0.333325 0.09412,0.03233 0.861958,0.04489 2.289207,0.102325 0.04201,0.1258 0.07158,0.220796 0.0887,0.284706 0.04496,0.16788 0.08605,0.336783 0.123372,0.50669 -0.22069,0.05859 -0.726088,0.145468 -1.595688,0.301262 -0.858025,0.145365 -1.646514,0.338784 -2.361452,0.573261 -1.09158,0.358004 -2.125268,0.779521 -3.09585,1.258346 -0.126242,0.06617 -0.249988,0.127436 -0.371368,0.183787 -0.09703,-0.267902 -0.193964,-0.535842 -0.290805,-0.803819 0.255221,-0.241458 0.622021,-0.502579 1.101231,-0.776098 0.337844,-0.19504 0.530828,-0.382065 0.576473,-0.564997 0.0455,-0.182379 -0.05175,-0.613361 -0.292886,-1.289986 -0.09155,-0.256876 -0.175798,-0.481048 -0.253011,-0.672877 -0.329339,-0.800503 -0.761626,-1.933023 -1.289238,-3.381945 -0.56096,-1.347949 -1.125938,-2.694249 -1.694937,-4.038877 -0.236533,-0.573432 -0.41332,-0.965926 -0.5303,-1.178438 -0.29236,2.620482 -0.480039,5.227827 -0.560278,7.814961 -0.0082,0.18748 -0.02225,0.441369 -0.04157,0.794933 -0.02259,0.442326 -0.0338,0.758597 -0.03693,0.915754 0.0068,1.644277 0.09501,2.907775 0.208214,3.73071 0.02688,0.214815 0.0505,0.496449 0.07334,0.849246 -0.275479,0.120303 -0.549935,0.242546 -0.823334,0.36674 -0.459827,-0.481017 -0.92483,-0.958344 -1.395018,-1.431887 -0.382163,-0.355014 -1.02264,-0.898156 -1.897796,-1.574482 -0.521337,-0.400538 -0.925424,-0.711461 -1.24074,-0.964569 -0.136287,-0.09717 -0.236036,-0.169996 -0.300846,-0.220425 -0.09291,-0.06793 -0.186002,-0.135704 -0.279275,-0.203316 -0.0305,-0.03991 -0.061,-0.07051 -0.0915,-0.0918 -1.179891,-0.876992 -2.388887,-1.728608 -3.627073,-2.553322 -0.754097,-0.499916 -1.519015,-0.989835 -2.294771,-1.469409 0.951301,1.704774 1.905288,3.40808 2.861963,5.10991 0.614186,1.108524 1.229901,2.216215 1.847146,3.323069 0.317548,0.540463 0.643642,0.871224 0.972512,0.994106 0.333582,0.112418 0.866248,0.06302 1.608417,-0.128527 0.189843,-0.04794 0.379765,-0.0949 0.569758,-0.140869 l 0.427163,0.795951 c -0.400865,0.206262 -0.840627,0.411266 -1.32133,0.61912 -0.475317,0.195706 -1.088019,0.514116 -1.811848,0.962859 -0.108887,0.06751 -0.827901,0.552433 -1.860451,1.340664 -4e-6,-4e-6 -8e-6,-8e-6 -1.2e-5,-1.1e-5 z"
           style="font-weight:bold"
           id="path249877"
           inkscape:original-d="m 53.080762,72.69068 0.03721,-0.843359 q 1.550293,-0.198438 1.971972,-0.63252 0.272852,-0.297656 0.42168,-1.550293 l 0.161231,-4.415234 0.186035,-4.489649 q 0.0248,-0.409277 0.0248,-0.496093 0,-1.748731 -0.210839,-2.021582 -0.198438,-0.272852 -1.5875,-0.533301 -0.347266,-0.07441 -0.545704,-0.124024 -0.0248,-0.310058 -0.0248,-0.520898 v -0.384473 q 0.458886,-0.03721 1.079004,-0.03721 l 3.633886,0.124024 q 0.124024,0.0124 0.347266,0.0248 l 0.570508,0.02481 q 0.21084,0.248047 0.421679,0.657324 0.458887,0.905371 1.21543,2.654102 l 0.136426,0.334863 1.934765,4.204395 q 0.06201,0.148828 0.198438,0.434082 0.186035,0.446484 0.384473,0.855761 0.198437,0.396875 0.409277,0.880567 0.223242,0.483691 0.42168,0.855761 0.173632,-0.297656 0.334863,-0.657324 0.496094,-1.141015 0.967383,-2.095996 0.818554,-1.686719 2.220019,-5.159375 0.223242,-0.558105 0.731738,-1.674316 0.520899,-1.128613 0.570508,-1.190625 0.111621,-0.09922 0.446485,-0.09922 0.124023,0 0.384472,-0.0124 0.644922,-0.03721 1.550293,-0.06201 1.302246,-0.0124 2.083594,-0.07441 0.79375,-0.07441 0.892969,-0.07441 0.124023,0 0.297656,0.02481 0.0124,0.173632 0.0124,0.272851 l -0.0248,0.372071 q 0,0.111621 -0.0124,0.334863 -1.16582,0.173633 -1.897558,0.520898 -0.508496,0.248047 -0.508496,0.620117 v 0.186036 l 0.210839,3.795117 q 0.03721,0.520898 0.198438,5.171777 0.03721,1.041797 0.16123,2.641699 0.02481,0.198438 0.02481,0.310059 0.0124,0.297656 0.124024,0.384472 0.124023,0.08682 2.232421,0.719336 0.0124,0.198438 0.0124,0.297657 0,0.260449 -0.0124,0.520898 -0.334863,0 -1.686718,-0.136426 -1.351856,-0.148828 -2.530078,-0.148828 -1.79834,0 -3.497461,0.148828 -0.223243,0.02481 -0.434082,0.03721 l 0.0248,-0.855761 q 0.508496,-0.198438 1.351856,-0.334864 0.595312,-0.09922 0.756543,-0.334863 0.16123,-0.235645 0.16123,-1.314648 0,-0.409278 -0.0124,-0.719336 -0.06201,-1.302246 -0.07441,-3.621485 l -0.21084,-4.378027 q -0.03721,-0.930176 -0.08682,-1.289844 l -3.088184,7.094141 q -0.111621,0.248047 -0.334863,0.719336 -0.285254,0.607715 -0.384473,0.830957 -0.95498,2.294433 -1.327051,3.509863 -0.09922,0.310059 -0.297656,0.806152 l -0.95498,-0.0124 -0.669727,-1.897559 q -0.297656,-0.74414 -1.016992,-2.257226 -0.42168,-0.880566 -0.657324,-1.42627 -0.111621,-0.223242 -0.161231,-0.334863 l -0.148828,-0.310058 q -0.0124,-0.07442 -0.03721,-0.124024 l -1.847949,-3.981152 -1.128613,-2.418457 -0.09922,5.866308 -0.08682,3.80752 q 0,0.942578 0.347266,1.351855 0.359668,0.396875 1.525488,0.682129 l 0.595313,0.148828 v 0.905371 q -0.719336,-0.0124 -1.550293,-0.09922 -0.818555,-0.09922 -2.182813,-0.09922 -0.285254,0 -2.443261,0.111621 z" />
        <path
           d="m 92.044101,56.247404 c 0.07879,0.23614 0.178876,0.707977 0.29782,1.414316 0.118401,0.697234 0.184136,1.209703 0.199362,1.530819 0.0059,0.12397 -0.01916,0.278166 -0.07456,0.462966 -0.394906,0.01024 -0.731096,-0.0045 -1.010127,-0.04641 -0.752745,-0.922891 -1.305751,-1.499094 -1.61103,-1.722586 -0.577602,-0.421852 -1.313598,-0.757792 -2.20712,-0.99552 -0.658024,-0.177365 -1.404305,-0.219107 -2.230355,-0.118643 -1.585573,0.192839 -2.898613,1.021214 -3.866507,2.445952 -0.972972,1.432211 -1.183918,3.349927 -0.7256,5.762425 0.214951,1.131463 0.635132,2.189446 1.236653,3.183469 0.609504,0.991981 1.364908,1.726629 2.260919,2.213706 0.896362,0.479781 1.868159,0.648699 2.945306,0.517513 0.522817,-0.06367 1.069707,-0.196107 1.646112,-0.395896 0.292557,-0.09615 0.523123,-0.251039 0.692364,-0.466224 0.118184,-0.143876 0.18658,-0.349586 0.204604,-0.61717 0.02392,-0.483398 -0.0011,-1.168763 -0.07669,-2.050673 -0.07363,-0.85881 -0.136737,-1.446114 -0.190349,-1.766392 -0.07075,-0.118538 -0.137855,-0.19162 -0.201011,-0.219264 -0.05499,-0.03647 -0.233194,-0.0835 -0.533783,-0.138083 -0.392984,-0.06254 -0.787098,-0.122401 -1.1823,-0.179528 -0.256864,-0.03048 -0.420303,-0.08253 -0.490346,-0.158021 -0.0295,-0.105068 -0.0471,-0.18222 -0.05274,-0.231638 -0.01314,-0.115153 -0.0011,-0.279327 0.03673,-0.491969 0.15152,-0.06714 0.258287,-0.103848 0.319398,-0.110522 0.951809,-0.103955 1.785139,-0.145706 2.489325,-0.135884 0.246435,-0.0032 0.513785,-0.01529 0.802702,-0.03581 0.690897,-0.05736 1.382346,-0.106488 2.074055,-0.147441 0.17963,-0.01356 0.359296,-0.02657 0.538992,-0.03903 0.1135,-0.0079 0.227018,-0.01548 0.340551,-0.02289 0.102689,-0.0119 0.400993,-0.01513 0.88146,-0.0034 0.01452,0.214534 0.02371,0.396318 0.02768,0.544987 0.0024,0.09091 -0.02531,0.194966 -0.08285,0.312358 -0.145742,0.08708 -0.393047,0.197068 -0.743507,0.334297 -0.152588,0.05975 -0.27599,0.111126 -0.369517,0.153347 -0.120876,0.05461 -0.192933,0.09436 -0.216163,0.118669 -0.06611,0.06917 -0.108834,0.174583 -0.128279,0.316227 -0.01951,0.142064 -0.0099,0.633354 0.02839,1.476443 0.04429,0.974162 0.06664,1.558145 0.06704,1.747878 -0.0052,0.611491 -0.0052,0.962182 -0.0015,1.043344 0.01412,0.3056 -0.01781,0.497757 -0.09523,0.576185 -0.218607,0.246014 -0.904189,0.539402 -2.055323,0.927664 -1.142812,0.379068 -2.466451,0.649417 -3.996661,0.843886 -1.069754,0.135951 -2.005864,0.188829 -2.823945,0.145806 -0.810542,-0.05244 -1.523095,-0.192793 -2.143269,-0.429206 -0.831559,-0.313977 -1.586865,-0.732833 -2.267058,-1.263211 -0.680052,-0.530268 -1.248114,-1.134526 -1.696173,-1.820408 -0.629115,-0.975235 -1.083162,-1.984633 -1.339418,-3.038563 -0.287554,-1.182655 -0.288359,-2.453945 0.04035,-3.813959 0.245461,-0.983522 0.706508,-1.920614 1.395281,-2.800707 0.69584,-0.889467 1.655308,-1.670103 2.877215,-2.315736 1.221717,-0.645534 2.615906,-1.072673 4.156793,-1.260872 0.191395,-0.02338 0.509192,-0.04082 0.945968,-0.04803 1.174712,-0.1312 2.287594,-0.103305 3.325312,0.07568 1.036512,0.170641 1.898099,0.421282 2.581013,0.735717 1e-6,-10e-7 3e-6,-2e-6 4e-6,-2e-6 z"
           style="font-weight:bold"
           id="path249879"
           inkscape:original-d="m 91.900098,57.683844 q 0.08682,0.359668 0.198437,1.42627 0.111621,1.054199 0.111621,1.53789 0,0.186035 -0.08682,0.458887 -0.533301,-0.0124 -0.905371,-0.09922 -0.942578,-1.451074 -1.327051,-1.823144 -0.719336,-0.694531 -1.847949,-1.178223 -0.830957,-0.359668 -1.909961,-0.359668 -2.071191,0 -3.646289,1.860352 -1.575098,1.860351 -1.575098,5.531445 0,1.723926 0.607715,3.348633 0.620117,1.624707 1.847949,2.554882 1.227832,0.917774 2.889746,0.917774 0.806153,0 1.711524,-0.21084 0.458887,-0.09922 0.744141,-0.396875 0.198437,-0.198437 0.260449,-0.595312 0.09922,-0.719336 0.09922,-2.046387 0,-1.289844 -0.03721,-1.773535 -0.08682,-0.186035 -0.173632,-0.235645 -0.07441,-0.06201 -0.496094,-0.186035 l -1.103809,-0.297656 q -0.359668,-0.08682 -0.446484,-0.21084 -0.0248,-0.16123 -0.0248,-0.235645 0,-0.173632 0.08682,-0.483691 0.223242,-0.07441 0.310058,-0.07441 1.351856,0 2.344043,0.09922 0.347266,0.0248 0.756543,0.0248 l 1.95957,-0.0248 0.830957,-0.02481 q 0.148829,-0.0124 0.830957,0.02481 0.0124,0.322461 0.0124,0.545703 0,0.136426 -0.08682,0.310058 -0.210839,0.124024 -0.719336,0.310059 -0.508496,0.186035 -0.570507,0.248047 -0.09922,0.09922 -0.136426,0.310059 -0.03721,0.210839 -0.03721,1.475878 0,1.463477 -0.0124,1.748731 -0.04961,0.917773 -0.04961,1.041797 0,0.458886 -0.124023,0.570508 -0.347266,0.347265 -2.158008,0.793749 -1.79834,0.434083 -4.191992,0.434083 -1.674317,0 -2.914551,-0.26045 -1.227832,-0.272851 -2.095996,-0.79375 -1.16582,-0.694531 -1.996777,-1.686718 -0.830957,-0.992188 -1.240235,-2.145606 -0.570507,-1.637109 -0.570507,-3.261816 0,-1.823145 0.843359,-3.695899 0.620117,-1.351855 1.736328,-2.430859 1.128613,-1.091406 2.815332,-1.736328 1.686719,-0.644922 3.671094,-0.644922 0.248047,0 0.806152,0.06201 1.513086,0 2.827734,0.384472 1.314649,0.372071 2.182813,0.892969 z" />
        <path
           d="m 94.890511,71.155535 c 9.49e-4,-0.281153 0.002,-0.562305 0.0031,-0.843456 0.151707,-0.05334 0.423657,-0.122872 0.811395,-0.203393 0.624663,-0.134388 1.001319,-0.244817 1.132832,-0.345063 0.138708,-0.09953 0.305895,-0.338947 0.505394,-0.718237 0.842324,-2.181625 1.750147,-4.349478 2.721806,-6.501498 1.14021,-2.53043 2.36849,-5.039057 3.68215,-7.522544 0.31593,0.03017 0.61723,0.05666 0.90466,0.07915 0.21549,0.01686 0.4309,0.03441 0.64623,0.05265 0.0368,0.07771 0.0735,0.155433 0.11005,0.233178 0.68464,1.766369 1.32592,3.539393 1.92442,5.317656 0.41368,1.134115 0.75831,2.237204 1.04011,3.304752 0.28466,1.06614 0.51731,1.922798 0.71973,2.607267 0.11582,0.404945 0.26944,1.02051 0.44792,1.828385 0.0893,0.440296 0.2392,0.993984 0.4452,1.670813 0.11068,0.368287 0.20048,0.587134 0.27265,0.657246 0.12664,0.14562 0.34794,0.264515 0.66413,0.359139 0.32422,0.09595 0.66331,0.250792 1.01479,0.464954 -0.008,0.275507 -0.0236,0.478712 -0.0469,0.6087 -0.0102,0.05698 -0.0302,0.145667 -0.06,0.266285 -0.58934,-0.106113 -1.23194,-0.245036 -1.93432,-0.413751 -0.70137,-0.168471 -1.33875,-0.288707 -1.90709,-0.364769 -0.62923,-0.08421 -1.09468,-0.131254 -1.3736,-0.147583 -0.6859,-0.04311 -1.37152,-0.07783 -2.05665,-0.104081 -0.19726,-0.01001 -0.39449,-0.01931 -0.5917,-0.02791 0.0246,-0.288024 0.0602,-0.562596 0.10709,-0.823836 0.45798,-0.06005 0.91735,-0.116359 1.37805,-0.168914 0.41742,-0.06542 0.66142,-0.120549 0.73335,-0.171171 0.0904,-0.07309 0.14177,-0.162891 0.15367,-0.269607 0.0119,-0.106702 0.004,-0.219819 -0.0244,-0.339298 -0.11934,-0.420474 -0.241,-0.840718 -0.36497,-1.260715 -0.24379,-0.839557 -0.49675,-1.678162 -0.75892,-2.515678 -1.63273,-0.157399 -3.26921,-0.270178 -4.90739,-0.337074 -0.18667,0.371894 -0.613993,1.362295 -1.194466,2.874851 -0.168674,0.433108 -0.253309,0.729905 -0.256893,0.886203 -0.0049,0.21468 0.04897,0.36874 0.160936,0.462298 0.184198,0.161759 0.538753,0.281714 1.064993,0.367546 0.0789,0.02094 0.3532,0.07343 0.85936,0.173063 -0.006,0.297115 -0.0122,0.504012 -0.0178,0.619258 -0.004,0.09074 -0.017,0.18521 -0.0378,0.283437 -0.49783,-0.02376 -1.681545,-0.155184 -3.563999,-0.302124 -0.165107,0.02835 -0.330026,0.05721 -0.494754,0.08659 -0.59471,0.100812 -1.15877,0.158635 -1.695936,0.171721 -0.07215,0.0018 -0.144285,0.0036 -0.21642,0.0056 z m 5.964959,-6.906663 c 1.82109,0.102768 3.44492,0.255761 3.59558,0.268462 0.10881,0.005 0.21763,0.01026 0.32645,0.01568 -0.19544,-0.753107 -0.46621,-1.63772 -0.81963,-2.640283 -0.35246,-1.009824 -0.65901,-1.785552 -0.89884,-2.311563 -0.7674,1.547081 -1.50213,3.103241 -2.20356,4.667706 z"
           style="font-weight:bold"
           id="path249881"
           inkscape:original-d="m 94.045703,72.69068 0.02481,-0.843359 q 0.235644,-0.07441 0.830957,-0.186036 0.95498,-0.186035 1.153418,-0.334863 0.21084,-0.148828 0.508496,-0.719336 l 2.505273,-6.56084 2.939363,-7.714257 q 0.40927,0.0124 0.78135,0.0124 h 0.5581 l 0.11162,0.223242 2.15801,5.109766 q 0.73174,1.624707 1.31465,3.162597 0.58291,1.525489 1.00459,2.492872 0.24804,0.58291 0.68213,1.74873 0.22324,0.632519 0.68213,1.5875 0.24804,0.520898 0.37206,0.607715 0.22325,0.186035 0.71933,0.248047 0.5085,0.06201 1.09141,0.285254 0.062,0.409277 0.062,0.607714 0,0.08682 -0.0124,0.272852 -0.91778,0 -2.02158,-0.08682 -1.10381,-0.08682 -1.98438,-0.08682 -0.97978,0 -1.41387,0.02481 l -2.10839,0.111621 -0.60772,0.02481 q 0,-0.434082 0.0372,-0.830957 l 1.37666,-0.297657 q 0.62011,-0.16123 0.71933,-0.248047 0.12403,-0.124023 0.12403,-0.285253 0,-0.161231 -0.062,-0.334864 l -0.49609,-1.215429 -0.97978,-2.43086 -4.737694,-0.0124 q -0.260449,0.595312 -1.079004,2.914551 -0.235645,0.657324 -0.235645,0.892968 0,0.322461 0.173633,0.458887 0.285254,0.235645 1.091406,0.334863 0.111622,0.02481 0.880564,0.136426 0.0124,0.446485 0.0124,0.620117 0,0.136426 -0.0248,0.285254 -0.768945,0 -3.671093,-0.21084 l -0.508496,0.08682 q -0.917774,0.148828 -1.748731,0.148828 z m 5.829102,-6.970117 q 2.902145,0.03721 3.423045,0.03721 l 0.31006,-0.0124 q -0.37207,-1.103809 -0.96738,-2.567286 -0.59532,-1.475878 -0.96739,-2.244824 z" />
        <path
           d="m 114.63702,57.522473 c 0.0511,-0.309884 0.1021,-0.619776 0.15309,-0.929674 1.11396,0.262771 2.22223,0.543578 3.32436,0.842029 0.50011,0.102432 0.99943,0.208492 1.49794,0.318154 0.18136,0.04144 0.36261,0.08336 0.54374,0.125748 0.60186,0.14086 1.42393,0.307684 2.67434,0.57287 0.68707,0.137226 1.13401,0.238571 1.30229,0.284794 1.15749,0.317944 2.01598,0.634192 2.56357,0.920076 0.84581,0.428396 1.46826,0.905563 1.868,1.417891 0.40923,0.515888 0.68606,1.15799 0.82966,1.923425 0.15501,0.760227 0.13201,1.414678 -0.0571,1.961698 -0.47051,1.360897 -1.32433,2.301141 -2.53106,2.853038 -1.19653,0.547182 -2.4726,0.609493 -3.87147,0.20397 -0.48616,-0.140937 -0.93628,-0.327675 -1.35251,-0.561789 -0.40778,-0.231782 -0.77737,-0.509886 -1.11028,-0.835686 0.0178,-0.243022 0.0794,-0.569143 0.18519,-0.977305 0.20219,0.06948 0.38319,0.129867 0.54415,0.18113 0.16947,0.05351 0.31814,0.0977 0.44669,0.132432 0.72773,0.196659 1.38927,0.182797 1.99502,-0.04617 0.79886,-0.2921 1.3709,-0.974842 1.69839,-2.059668 0.23443,-0.776561 0.27647,-1.454668 0.11868,-2.037046 -0.14636,-0.587107 -0.40392,-1.028715 -0.77036,-1.322489 -0.51093,-0.403671 -1.13419,-0.705077 -1.86476,-0.898169 -0.68466,-0.180957 -1.19843,-0.215574 -1.53454,-0.112071 -0.0992,0.08609 -0.17888,0.172866 -0.23926,0.260152 -0.43688,1.898175 -0.87555,3.795943 -1.31601,5.693302 -0.0486,0.158355 -0.0971,0.316722 -0.14558,0.4751 -0.0291,0.171728 -0.0582,0.343443 -0.0874,0.515144 -0.0195,0.114515 -0.0562,0.27998 -0.11024,0.496683 l -0.24605,0.986998 c -0.12683,0.526643 -0.25373,1.053268 -0.38071,1.579877 -0.16435,0.623821 -0.32854,1.247683 -0.49256,1.871586 -0.0661,0.265168 -0.13059,0.62761 -0.1951,1.089267 0.76889,0.299422 1.53281,0.608868 2.29155,0.928059 -0.0216,0.200016 -0.0482,0.355935 -0.0793,0.467419 -0.0334,0.11961 -0.0997,0.281245 -0.19869,0.485587 -0.20448,-0.02271 -0.35719,-0.04753 -0.45904,-0.07541 -0.24862,-0.06806 -0.68667,-0.217356 -1.35413,-0.449262 -0.65889,-0.237646 -1.4254,-0.460794 -2.29495,-0.660117 -0.98092,-0.224851 -1.93195,-0.357711 -2.84598,-0.401849 -0.15617,-0.0052 -0.39677,-0.0311 -0.72596,-0.07587 0.0121,-0.241693 0.0285,-0.419123 0.0496,-0.533009 0.0136,-0.07308 0.0427,-0.185457 0.0874,-0.33679 0.25968,-0.03557 0.5199,-0.06999 0.78063,-0.10325 0.53604,-0.05528 1.0119,-0.15147 1.42878,-0.291749 0.12186,-0.219352 0.20367,-0.425821 0.2447,-0.619988 0.0171,-0.08087 0.0327,-0.174766 0.0467,-0.281629 0.0448,-0.252248 0.11499,-0.605396 0.21053,-1.058142 0.22745,-1.139055 0.45443,-2.278201 0.68095,-3.417436 0.22297,-1.29205 0.44401,-2.584446 0.66312,-3.877187 0.31994,-1.841708 0.47415,-2.839668 0.46766,-2.992953 -0.0155,-0.248025 -0.0883,-0.452923 -0.21889,-0.614465 -0.12877,-0.169488 -0.373,-0.320255 -0.73281,-0.44944 -0.75144,-0.265211 -1.2396,-0.447523 -1.48201,-0.567812 0,10e-7 0,10e-7 -10e-6,2e-6 z"
           style="font-weight:bold"
           id="path249883"
           inkscape:original-d="m 111.64463,57.473004 -0.0124,-0.942578 2.96416,0.186035 1.32705,-0.0124 h 0.4837 q 0.75654,0 2.36884,-0.08682 0.91778,-0.06201 1.15342,-0.06201 1.5627,0 2.35645,0.173633 1.21543,0.248047 1.92236,0.79375 0.71934,0.545703 1.22783,1.562695 0.5209,1.00459 0.5209,1.872754 0,2.158008 -1.36426,3.509863 -1.35185,1.339453 -3.42304,1.339453 -0.71934,0 -1.37666,-0.173633 -0.64493,-0.173632 -1.21543,-0.520898 -0.062,-0.359668 -0.062,-0.992187 0.29766,0.0248 0.5333,0.03721 0.24805,0.0124 0.43409,0.0124 1.0542,0 1.77353,-0.58291 0.95498,-0.756543 0.95498,-2.455664 0,-1.21543 -0.42168,-1.984375 -0.40927,-0.781348 -0.97978,-1.054199 -0.79375,-0.372071 -1.78594,-0.372071 -0.93018,0 -1.32705,0.272852 -0.0992,0.16123 -0.14883,0.310058 l 0.0868,5.841504 -0.0248,0.496094 0.0372,0.520898 q 0.0124,0.173633 0.0124,0.508496 v 1.016993 l 0.0124,1.624707 -0.0248,1.934765 q 0,0.409278 0.0744,1.103809 l 2.46807,0.310058 q 0.0496,0.297657 0.0496,0.471289 0,0.186036 -0.062,0.520899 -0.31006,0.04961 -0.47129,0.04961 -0.38447,0 -1.45108,-0.08682 -1.0666,-0.09922 -2.43085,-0.09922 -1.53789,0 -2.92696,0.198438 -0.23564,0.03721 -0.74414,0.06201 -0.0496,-0.359668 -0.0496,-0.5333 0,-0.111622 0.0248,-0.347266 l 0.75654,-0.248047 q 0.78135,-0.235644 1.35186,-0.570508 0.11162,-0.359668 0.11162,-0.657324 0,-0.124023 -0.0124,-0.285254 -0.0124,-0.384472 -0.0124,-1.079004 l -0.0372,-3.485058 -0.13643,-3.931543 q -0.0868,-2.80293 -0.13643,-3.026172 -0.0868,-0.359668 -0.29765,-0.558105 -0.21084,-0.21084 -0.70694,-0.297657 -1.02939,-0.173633 -1.36425,-0.285254 z" />
        <path
           d="m 142.4798,66.110277 c -0.0368,0.294651 -0.14571,0.715044 -0.32738,1.261343 -0.27032,0.814549 -0.5115,1.435545 -0.71741,1.858352 -0.0652,0.133851 -0.15233,0.270737 -0.26123,0.410889 -0.0466,-0.0089 -0.0932,-0.01777 -0.13982,-0.0266 -0.28754,-0.162576 -0.57594,-0.323873 -0.8652,-0.483878 -0.0461,-0.03103 -0.0923,-0.06202 -0.13853,-0.09298 0.10097,-1.159797 0.0399,-2.004894 -0.17254,-2.530082 -0.37095,-0.898116 -1.00987,-1.547886 -1.904,-1.933075 -0.85056,-0.366418 -1.61604,-0.449303 -2.28248,-0.256113 -0.65547,0.189302 -1.09568,0.580625 -1.32819,1.164809 -0.19601,0.492476 -0.13863,1.061752 0.15935,1.709975 0.29147,0.649115 1.11047,1.481634 2.43054,2.556142 0.44125,0.358143 0.94663,0.849556 1.50345,1.473652 0.56515,0.628112 0.93816,1.208325 1.1259,1.731446 0.2529,0.692992 0.35342,1.298282 0.31075,1.812544 -0.0312,0.511641 -0.20852,1.083532 -0.52826,1.719041 -0.34936,0.694377 -0.82687,1.310035 -1.42438,1.853455 -0.31924,0.284665 -0.71383,0.509169 -1.18222,0.676759 -0.33281,0.114686 -0.80458,0.211211 -1.41765,0.297452 -0.60867,0.07864 -1.1939,0.07236 -1.75964,-0.01975 -0.55917,-0.08889 -1.22913,-0.305357 -2.0216,-0.6425 -0.5236,-0.222761 -1.1154,-0.559082 -1.78711,-1.006572 -0.39939,-0.315987 -0.80221,-0.629327 -1.20843,-0.939928 -0.34055,-0.254552 -0.54562,-0.440999 -0.61383,-0.563963 -0.0268,-0.04535 -0.0339,-0.131915 -0.0214,-0.259725 l 0.0476,-0.127975 c 0.0318,-0.08532 0.21053,-0.623679 0.53441,-1.615759 0.17183,-0.510725 0.29589,-0.869336 0.37388,-1.079441 l 0.16416,-0.442241 c 0.37026,0.128625 0.73982,0.259479 1.10865,0.392545 0.0521,1.010421 0.0881,1.608771 0.12861,1.835172 0.0869,0.487824 0.22247,0.911577 0.40758,1.271933 0.19595,0.355882 0.46134,0.687831 0.79599,0.997901 0.33786,0.302451 0.73567,0.552257 1.19551,0.752029 0.40719,0.176898 0.89218,0.287148 1.45901,0.334783 0.56655,0.04761 1.08685,-0.0528 1.56363,-0.304392 0.48771,-0.255477 0.8408,-0.604633 1.05413,-1.05284 0.26283,-0.552218 0.24379,-1.190397 -0.0739,-1.912917 -0.18816,-0.43781 -0.89455,-1.25229 -2.14777,-2.37453 -1.26345,-1.131391 -2.11953,-1.977785 -2.55324,-2.605395 -0.42929,-0.621225 -0.69421,-1.323812 -0.79161,-2.111531 -0.0945,-0.79575 -0.0346,-1.500292 0.1919,-2.114031 0.45524,-1.233763 1.33399,-2.104286 2.67047,-2.574506 1.33216,-0.468693 3.0049,-0.30354 4.94892,0.54677 0.41819,0.182911 1.01413,0.523126 1.76792,1.024044 0.45774,0.301158 1.03916,0.764313 1.72551,1.389718 -1e-5,-9e-6 -2e-5,-1.8e-5 -2e-5,-2.7e-5 z"
           style="font-weight:bold"
           id="path249885"
           inkscape:original-d="m 137.13145,57.001715 q 0.12402,0.42168 0.22324,1.277442 0.14883,1.277441 0.14883,1.984375 0,0.223242 -0.0496,0.483691 l -0.12403,0.03721 -0.89296,-0.06201 -0.14883,-0.0248 q -0.54571,-1.63711 -1.09141,-2.22002 -0.94258,-0.992187 -2.22002,-0.992187 -1.21543,0 -1.93476,0.644922 -0.70694,0.632519 -0.70694,1.575097 0,0.79375 0.70694,1.525488 0.69453,0.731739 2.95175,1.401465 0.75655,0.223242 1.82315,0.719336 1.079,0.496094 1.63711,1.079004 0.74414,0.768945 1.01699,1.488281 0.28525,0.706934 0.28525,1.773535 0,1.165821 -0.43408,2.294434 -0.23564,0.595313 -0.75654,1.128613 -0.37207,0.372071 -1.15342,0.880567 -0.78135,0.496093 -1.62471,0.719336 -0.83095,0.223242 -2.1456,0.223242 -0.86817,0 -2.07119,-0.248047 l -1.48828,-0.434082 q -0.62012,-0.173633 -0.78135,-0.310059 -0.062,-0.04961 -0.11162,-0.235644 v -0.136426 q 0,-0.136426 -0.062,-1.699121 -0.0248,-0.806152 -0.0248,-1.141016 v -0.471289 l 1.14102,-0.0248 q 0.59531,1.37666 0.76894,1.661914 0.38447,0.632519 0.84336,1.029394 0.47129,0.384473 1.11621,0.620117 0.64492,0.223243 1.40147,0.223243 0.66972,0 1.47588,-0.285254 0.80615,-0.285254 1.28984,-0.930176 0.49609,-0.657324 0.49609,-1.401465 0,-0.917773 -0.85576,-1.699121 -0.5209,-0.483691 -2.80293,-1.289844 -2.28203,-0.806152 -3.1626,-1.438672 -0.88056,-0.632519 -1.38906,-1.686718 -0.50849,-1.066602 -0.50849,-2.046387 0,-1.971973 1.41386,-3.348633 1.41387,-1.37666 4.16719,-1.37666 0.59531,0 1.76113,0.21084 0.70694,0.124023 1.87276,0.520898 z" />
      </g>
      <circle
         style="fill:#ff061a;fill-opacity:1;stroke:#fe0519;stroke-width:3.70001;stroke-miterlimit:4;stroke-dasharray:none;stroke-opacity:1"
         id="path197862"
         cx="90.363831"
         cy="147.0517"
         r="21.328115" />
      <circle
         style="fill:none;fill-opacity:1;stroke:#041a33;stroke-width:2;stroke-miterlimit:4;stroke-dasharray:none;stroke-opacity:1"
         id="path129686"
         cx="90.363831"
         cy="147.0517"
         r="27.876211" />
      <circle
         style="fill:#001830;fill-opacity:1;stroke:#001830;stroke-width:2.21598;stroke-miterlimit:4;stroke-dasharray:none;stroke-opacity:1"
         id="path137510"
         cx="90.363831"
         cy="147.0517"
         r="2.6948059" />
      <circle
         style="fill:none;fill-opacity:1;stroke:#f7edd8;stroke-width:4;stroke-miterlimit:4;stroke-dasharray:none;stroke-opacity:1"
         id="path129686-8"
         cx="90.363831"
         cy="147.0517"
         r="24.986456" />
      <g
         id="g202967">
        <ellipse
           style="fill:none;fill-opacity:1;stroke:#f7edd8;stroke-width:1.398;stroke-miterlimit:4;stroke-dasharray:none;stroke-opacity:1"
           id="path144842-2"
           cx="-147.0517"
           cy="90.363831"
           rx="18.572897"
           ry="6.1315002"
           transform="rotate(-90)" />
        <ellipse
           style="fill:none;fill-opacity:1;stroke:#f7edd8;stroke-width:1.398;stroke-miterlimit:4;stroke-dasharray:none;stroke-opacity:1"
           id="path144842-2-3"
           cx="90.363831"
           cy="147.0517"
           rx="18.572897"
           ry="6.1315002" />
        <ellipse
           style="fill:none;fill-opacity:1;stroke:#f7edd8;stroke-width:1.398;stroke-miterlimit:4;stroke-dasharray:none;stroke-opacity:1"
           id="path144842-2-3-2"
           cx="-31.676981"
           cy="169.66553"
           rx="18.572897"
           ry="6.1315002"
           transform="rotate(-42.146392)" />
        <ellipse
           style="fill:none;fill-opacity:1;stroke:#f7edd8;stroke-width:1.398;stroke-miterlimit:4;stroke-dasharray:none;stroke-opacity:1"
           id="path144842-2-3-2-1"
           cx="-165.67439"
           cy="48.392361"
           rx="18.572897"
           ry="6.1315002"
           transform="matrix(-0.74143276,-0.67102717,-0.67102717,0.74143276,0,0)" />
      </g>
      <circle
         style="fill:#f7edd8;fill-opacity:1;stroke:#f7edd8;stroke-width:1.398;stroke-miterlimit:4;stroke-dasharray:none;stroke-opacity:1"
         id="path203002"
         cx="102.05687"
         cy="210.19412"
         r="1.7773423" />
      <circle
         style="display:inline;fill:#f7edd8;fill-opacity:1;stroke:#f7edd8;stroke-width:1.398;stroke-miterlimit:4;stroke-dasharray:none;stroke-opacity:1"
         id="path203002-8"
         cx="147.6375"
         cy="179.12291"
         r="1.7773423" />
      <circle
         style="display:inline;fill:#f7edd8;fill-opacity:1;stroke:#f7edd8;stroke-width:1.398;stroke-miterlimit:4;stroke-dasharray:none;stroke-opacity:1"
         id="path203002-2"
         cx="97.366669"
         cy="110.06667"
         r="1.7773423" />
      <circle
         style="display:inline;fill:#f7edd8;fill-opacity:1;stroke:#f7edd8;stroke-width:1.398;stroke-miterlimit:4;stroke-dasharray:none;stroke-opacity:1"
         id="path203002-4"
         cx="43.217484"
         cy="176.23752"
         r="1.7773423" />
      <circle
         style="display:inline;fill:#f7edd8;fill-opacity:1;stroke:#f7edd8;stroke-width:1.9261;stroke-miterlimit:4;stroke-dasharray:none;stroke-opacity:1"
         id="path203002-6"
         cx="57.436222"
         cy="151.72891"
         r="2.4487369" />
      <circle
         style="display:inline;fill:#f7edd8;fill-opacity:1;stroke:#f7edd8;stroke-width:1.9261;stroke-miterlimit:4;stroke-dasharray:none;stroke-opacity:1"
         id="path203002-6-2"
         cx="61.912498"
         cy="106.62708"
         r="2.4487369" />
      <circle
         style="display:inline;fill:#f7edd8;fill-opacity:1;stroke:#f7edd8;stroke-width:0.731151;stroke-miterlimit:4;stroke-dasharray:none;stroke-opacity:1"
         id="path203002-6-2-0"
         cx="96.572914"
         cy="93.397919"
         r="0.92954481" />
    </g>
  </g>
</svg>
